{"buffers":[{"uri":"Primus v31.bin","byteLength":189384}],"asset":{"version":"2.0","generator":"gltfpack 0.16"},"bufferViews":[{"buffer":0,"byteOffset":0,"byteLength":77160,"byteStride":12,"target":34962},{"buffer":0,"byteOffset":77160,"byteLength":77160,"byteStride":12,"target":34962},{"buffer":0,"byteOffset":154320,"byteLength":35064,"target":34963}],"accessors":[{"bufferView":0,"byteOffset":0,"componentType":5126,"count":24,"type":"VEC3","min":[1.5,4.98957396,5.0086832],"max":[45.5,6.98957396,5.5086832]},{"bufferView":1,"byteOffset":0,"componentType":5126,"count":24,"type":"VEC3"},{"bufferView":2,"byteOffset":0,"componentType":5123,"count":36,"type":"SCALAR"},{"bufferView":0,"byteOffset":288,"componentType":5126,"count":90,"type":"VEC3","min":[-1.98172802e-15,-13.0104256,3.20696306],"max":[1.5,12.9895744,5.0086832]},{"bufferView":1,"byteOffset":288,"componentType":5126,"count":90,"type":"VEC3"},{"bufferView":2,"byteOffset":72,"componentType":5123,"count":168,"type":"SCALAR"},{"bufferView":0,"byteOffset":1368,"componentType":5126,"count":24,"type":"VEC3","min":[1.5,-1.01042604,5.0086832],"max":[45.5,0.989574015,5.5086832]},{"bufferView":1,"byteOffset":1368,"componentType":5126,"count":24,"type":"VEC3"},{"bufferView":2,"byteOffset":408,"componentType":5123,"count":36,"type":"SCALAR"},{"bufferView":0,"byteOffset":1656,"componentType":5126,"count":90,"type":"VEC3","min":[1.5,-13.0104256,3.20696306],"max":[45.5,12.9895744,5.0086832]},{"bufferView":1,"byteOffset":1656,"componentType":5126,"count":90,"type":"VEC3"},{"bufferView":2,"byteOffset":480,"componentType":5123,"count":168,"type":"SCALAR"},{"bufferView":0,"byteOffset":2736,"componentType":5126,"count":90,"type":"VEC3","min":[45.5,-13.0104256,3.20696306],"max":[47,12.9895744,5.0086832]},{"bufferView":1,"byteOffset":2736,"componentType":5126,"count":90,"type":"VEC3"},{"bufferView":2,"byteOffset":816,"componentType":5123,"count":168,"type":"SCALAR"},{"bufferView":0,"byteOffset":3816,"componentType":5126,"count":24,"type":"VEC3","min":[1.5,-7.01042604,5.0086832],"max":[45.5,-5.01042604,5.5086832]},{"bufferView":1,"byteOffset":3816,"componentType":5126,"count":24,"type":"VEC3"},{"bufferView":2,"byteOffset":1152,"componentType":5123,"count":36,"type":"SCALAR"},{"bufferView":0,"byteOffset":4104,"componentType":5126,"count":24,"type":"VEC3","min":[0.800000012,-7.75,-3],"max":[3.79998994,-5.25,-2.4000001]},{"bufferView":1,"byteOffset":4104,"componentType":5126,"count":24,"type":"VEC3"},{"bufferView":2,"byteOffset":1224,"componentType":5123,"count":36,"type":"SCALAR"},{"bufferView":0,"byteOffset":4392,"componentType":5126,"count":24,"type":"VEC3","min":[43.2000008,5.25,-3],"max":[46.2000008,7.75,-2.4000001]},{"bufferView":1,"byteOffset":4392,"componentType":5126,"count":24,"type":"VEC3"},{"bufferView":2,"byteOffset":1296,"componentType":5123,"count":36,"type":"SCALAR"},{"bufferView":0,"byteOffset":4680,"componentType":5126,"count":24,"type":"VEC3","min":[43.2000008,-7.75,-3],"max":[46.2000008,-5.25,-2.4000001]},{"bufferView":1,"byteOffset":4680,"componentType":5126,"count":24,"type":"VEC3"},{"bufferView":2,"byteOffset":1368,"componentType":5123,"count":36,"type":"SCALAR"},{"bufferView":0,"byteOffset":4968,"componentType":5126,"count":240,"type":"VEC3","min":[47,-12.3500004,0.649990022],"max":[47.2999916,-10.6499901,2.34998989]},{"bufferView":1,"byteOffset":4968,"componentType":5126,"count":240,"type":"VEC3"},{"bufferView":2,"byteOffset":1440,"componentType":5123,"count":708,"type":"SCALAR"},{"bufferView":0,"byteOffset":7848,"componentType":5126,"count":240,"type":"VEC3","min":[-0.300000012,-12.3500004,0.649990022],"max":[0,-10.6499901,2.34998989]},{"bufferView":1,"byteOffset":7848,"componentType":5126,"count":240,"type":"VEC3"},{"bufferView":2,"byteOffset":2856,"componentType":5123,"count":708,"type":"SCALAR"},{"bufferView":0,"byteOffset":10728,"componentType":5126,"count":98,"type":"VEC3","min":[1.5,-13,-2.4000001],"max":[45.5,12.75,3.79998994]},{"bufferView":1,"byteOffset":10728,"componentType":5126,"count":98,"type":"VEC3"},{"bufferView":2,"byteOffset":4272,"componentType":5123,"count":180,"type":"SCALAR"},{"bufferView":0,"byteOffset":11904,"componentType":5126,"count":338,"type":"VEC3","min":[33.7515106,12.75,0.200369999],"max":[35.75,14.25,2.19962001]},{"bufferView":1,"byteOffset":11904,"componentType":5126,"count":338,"type":"VEC3"},{"bufferView":2,"byteOffset":4632,"componentType":5123,"count":1002,"type":"SCALAR"},{"bufferView":0,"byteOffset":15960,"componentType":5126,"count":240,"type":"VEC3","min":[47,10.6499901,0.649990022],"max":[47.2999916,12.3500004,2.34998989]},{"bufferView":1,"byteOffset":15960,"componentType":5126,"count":240,"type":"VEC3"},{"bufferView":2,"byteOffset":6636,"componentType":5123,"count":708,"type":"SCALAR"},{"bufferView":0,"byteOffset":18840,"componentType":5126,"count":240,"type":"VEC3","min":[-0.300000012,10.6499901,0.649990022],"max":[0,12.3500004,2.34998989]},{"bufferView":1,"byteOffset":18840,"componentType":5126,"count":240,"type":"VEC3"},{"bufferView":2,"byteOffset":8052,"componentType":5123,"count":708,"type":"SCALAR"},{"bufferView":0,"byteOffset":21720,"componentType":5126,"count":24,"type":"VEC3","min":[0.800000012,5.25,-3],"max":[3.79998994,7.75,-2.4000001]},{"bufferView":1,"byteOffset":21720,"componentType":5126,"count":24,"type":"VEC3"},{"bufferView":2,"byteOffset":9468,"componentType":5123,"count":36,"type":"SCALAR"},{"bufferView":0,"byteOffset":22008,"componentType":5126,"count":338,"type":"VEC3","min":[11.2515097,12.75,0.200369999],"max":[13.25,14.25,2.19962001]},{"bufferView":1,"byteOffset":22008,"componentType":5126,"count":338,"type":"VEC3"},{"bufferView":2,"byteOffset":9540,"componentType":5123,"count":1002,"type":"SCALAR"},{"bufferView":0,"byteOffset":26064,"componentType":5126,"count":250,"type":"VEC3","min":[0,-13,-2.4000001],"max":[1.5,12.75,3.79998994]},{"bufferView":1,"byteOffset":26064,"componentType":5126,"count":250,"type":"VEC3"},{"bufferView":2,"byteOffset":11544,"componentType":5123,"count":552,"type":"SCALAR"},{"bufferView":0,"byteOffset":29064,"componentType":5126,"count":250,"type":"VEC3","min":[45.5,-13,-2.4000001],"max":[47,12.75,3.79998994]},{"bufferView":1,"byteOffset":29064,"componentType":5126,"count":250,"type":"VEC3"},{"bufferView":2,"byteOffset":12648,"componentType":5123,"count":552,"type":"SCALAR"},{"bufferView":0,"byteOffset":32064,"componentType":5126,"count":48,"type":"VEC3","min":[1.5,12.75,-1.5],"max":[45.5,12.7700005,3.20000005]},{"bufferView":1,"byteOffset":32064,"componentType":5126,"count":48,"type":"VEC3"},{"bufferView":2,"byteOffset":13752,"componentType":5123,"count":96,"type":"SCALAR"},{"bufferView":0,"byteOffset":32640,"componentType":5126,"count":156,"type":"VEC3","min":[1.5,10.6999903,-3.3499999],"max":[45.5,12.2999897,-3]},{"bufferView":1,"byteOffset":32640,"componentType":5126,"count":156,"type":"VEC3"},{"bufferView":2,"byteOffset":13944,"componentType":5123,"count":780,"type":"SCALAR"},{"bufferView":0,"byteOffset":34512,"componentType":5126,"count":156,"type":"VEC3","min":[1.5,10.6999903,-2.89999008],"max":[45.5,12.2999897,-2.39999008]},{"bufferView":1,"byteOffset":34512,"componentType":5126,"count":156,"type":"VEC3"},{"bufferView":2,"byteOffset":15504,"componentType":5123,"count":780,"type":"SCALAR"},{"bufferView":0,"byteOffset":36384,"componentType":5126,"count":352,"type":"VEC3","min":[-0.150000006,10.4639902,-3.21280003],"max":[47.1499901,12.5360003,2.38632989]},{"bufferView":1,"byteOffset":36384,"componentType":5126,"count":352,"type":"VEC3"},{"bufferView":2,"byteOffset":17064,"componentType":5123,"count":948,"type":"SCALAR"},{"bufferView":0,"byteOffset":40608,"componentType":5126,"count":24,"type":"VEC3","min":[23.8342361,-7.42362022,3.80868292],"max":[45.4999962,7.40275002,4.00869322]},{"bufferView":1,"byteOffset":40608,"componentType":5126,"count":24,"type":"VEC3"},{"bufferView":2,"byteOffset":18960,"componentType":5123,"count":36,"type":"SCALAR"},{"bufferView":0,"byteOffset":40896,"componentType":5126,"count":24,"type":"VEC3","min":[1.50000298,-7.42362022,3.80868292],"max":[23.1657639,7.40275002,4.0086832]},{"bufferView":1,"byteOffset":40896,"componentType":5126,"count":24,"type":"VEC3"},{"bufferView":2,"byteOffset":19032,"componentType":5123,"count":36,"type":"SCALAR"},{"bufferView":0,"byteOffset":41184,"componentType":5126,"count":24,"type":"VEC3","min":[24.5,7.98436022,4.28065014],"max":[44.5,12.5235596,5.1346302]},{"bufferView":1,"byteOffset":41184,"componentType":5126,"count":24,"type":"VEC3"},{"bufferView":2,"byteOffset":19104,"componentType":5123,"count":36,"type":"SCALAR"},{"bufferView":0,"byteOffset":41472,"componentType":5126,"count":24,"type":"VEC3","min":[2.5,7.98436022,4.28065014],"max":[22.5,12.5235596,5.1346302]},{"bufferView":1,"byteOffset":41472,"componentType":5126,"count":24,"type":"VEC3"},{"bufferView":2,"byteOffset":19176,"componentType":5123,"count":36,"type":"SCALAR"},{"bufferView":0,"byteOffset":41760,"componentType":5126,"count":24,"type":"VEC3","min":[24.0692291,12.75,0.75],"max":[24.3789196,12.7700005,1.75]},{"bufferView":1,"byteOffset":41760,"componentType":5126,"count":24,"type":"VEC3"},{"bufferView":2,"byteOffset":19248,"componentType":5123,"count":36,"type":"SCALAR"},{"bufferView":0,"byteOffset":42048,"componentType":5126,"count":194,"type":"VEC3","min":[19.8750992,12.75,1.67720997],"max":[19.9935207,12.7700005,1.77462006]},{"bufferView":1,"byteOffset":42048,"componentType":5126,"count":194,"type":"VEC3"},{"bufferView":2,"byteOffset":19320,"componentType":5123,"count":528,"type":"SCALAR"},{"bufferView":0,"byteOffset":44376,"componentType":5126,"count":232,"type":"VEC3","min":[11.1599503,12.75,1.59332001],"max":[13.6049404,12.7700005,2.5009501]},{"bufferView":1,"byteOffset":44376,"componentType":5126,"count":232,"type":"VEC3"},{"bufferView":2,"byteOffset":20376,"componentType":5123,"count":660,"type":"SCALAR"},{"bufferView":0,"byteOffset":47160,"componentType":5126,"count":232,"type":"VEC3","min":[33.6599503,12.75,1.59332001],"max":[36.1049385,12.7700005,2.5009501]},{"bufferView":1,"byteOffset":47160,"componentType":5126,"count":232,"type":"VEC3"},{"bufferView":2,"byteOffset":21696,"componentType":5123,"count":660,"type":"SCALAR"},{"bufferView":0,"byteOffset":49944,"componentType":5126,"count":654,"type":"VEC3","min":[20.5119305,12.75,0.732940018],"max":[21.4191608,12.7700005,1.76705003]},{"bufferView":1,"byteOffset":49944,"componentType":5126,"count":654,"type":"VEC3"},{"bufferView":2,"byteOffset":23016,"componentType":5123,"count":1776,"type":"SCALAR"},{"bufferView":0,"byteOffset":57792,"componentType":5126,"count":584,"type":"VEC3","min":[19.5604305,12.75,1.28328001],"max":[20.2895603,12.7700005,2.01192999]},{"bufferView":1,"byteOffset":57792,"componentType":5126,"count":584,"type":"VEC3"},{"bufferView":2,"byteOffset":26568,"componentType":5123,"count":1632,"type":"SCALAR"},{"bufferView":0,"byteOffset":64800,"componentType":5126,"count":382,"type":"VEC3","min":[24.4901009,12.75,0.75],"max":[25.4737301,12.7700005,1.75]},{"bufferView":1,"byteOffset":64800,"componentType":5126,"count":382,"type":"VEC3"},{"bufferView":2,"byteOffset":29832,"componentType":5123,"count":984,"type":"SCALAR"},{"bufferView":0,"byteOffset":69384,"componentType":5126,"count":306,"type":"VEC3","min":[21.56991,12.75,0.732940018],"max":[22.5282993,12.7700005,1.75]},{"bufferView":1,"byteOffset":69384,"componentType":5126,"count":306,"type":"VEC3"},{"bufferView":2,"byteOffset":31800,"componentType":5123,"count":792,"type":"SCALAR"},{"bufferView":0,"byteOffset":73056,"componentType":5126,"count":264,"type":"VEC3","min":[25.6394901,12.75,0.75],"max":[26.48806,12.7700005,1.75]},{"bufferView":1,"byteOffset":73056,"componentType":5126,"count":264,"type":"VEC3"},{"bufferView":2,"byteOffset":33384,"componentType":5123,"count":696,"type":"SCALAR"},{"bufferView":0,"byteOffset":76224,"componentType":5126,"count":78,"type":"VEC3","min":[22.72612,12.75,0.75],"max":[23.8509502,12.7700005,1.75]},{"bufferView":1,"byteOffset":76224,"componentType":5126,"count":78,"type":"VEC3"},{"bufferView":2,"byteOffset":34776,"componentType":5123,"count":144,"type":"SCALAR"}],"materials":[{"pbrMetallicRoughness":{"baseColorFactor":[0.839215696,0.670588255,0.494117647,1],"metallicFactor":0},"doubleSided":true},{"pbrMetallicRoughness":{"baseColorFactor":[0.0980392173,0.0980392173,0.0980392173,1],"metallicFactor":0},"doubleSided":true},{"pbrMetallicRoughness":{"baseColorFactor":[0.929411769,0.807843149,0.764705896,1],"metallicFactor":0},"doubleSided":true},{"pbrMetallicRoughness":{"baseColorFactor":[0.627451003,0.627451003,0.627451003,1],"metallicFactor":0},"doubleSided":true},{"pbrMetallicRoughness":{"baseColorFactor":[0.964705884,0.964705884,0.952941179,1],"metallicFactor":0},"doubleSided":true}],"meshes":[{"primitives":[{"attributes":{"POSITION":0,"NORMAL":1},"mode":4,"indices":2,"material":0}]},{"primitives":[{"attributes":{"POSITION":3,"NORMAL":4},"mode":4,"indices":5,"material":1}]},{"primitives":[{"attributes":{"POSITION":6,"NORMAL":7},"mode":4,"indices":8,"material":0}]},{"primitives":[{"attributes":{"POSITION":9,"NORMAL":10},"mode":4,"indices":11,"material":1}]},{"primitives":[{"attributes":{"POSITION":12,"NORMAL":13},"mode":4,"indices":14,"material":1}]},{"primitives":[{"attributes":{"POSITION":15,"NORMAL":16},"mode":4,"indices":17,"material":0}]},{"primitives":[{"attributes":{"POSITION":18,"NORMAL":19},"mode":4,"indices":20,"material":1}]},{"primitives":[{"attributes":{"POSITION":21,"NORMAL":22},"mode":4,"indices":23,"material":1}]},{"primitives":[{"attributes":{"POSITION":24,"NORMAL":25},"mode":4,"indices":26,"material":1}]},{"primitives":[{"attributes":{"POSITION":27,"NORMAL":28},"mode":4,"indices":29,"material":2}]},{"primitives":[{"attributes":{"POSITION":30,"NORMAL":31},"mode":4,"indices":32,"material":2}]},{"primitives":[{"attributes":{"POSITION":33,"NORMAL":34},"mode":4,"indices":35,"material":1}]},{"primitives":[{"attributes":{"POSITION":36,"NORMAL":37},"mode":4,"indices":38,"material":1}]},{"primitives":[{"attributes":{"POSITION":39,"NORMAL":40},"mode":4,"indices":41,"material":2}]},{"primitives":[{"attributes":{"POSITION":42,"NORMAL":43},"mode":4,"indices":44,"material":2}]},{"primitives":[{"attributes":{"POSITION":45,"NORMAL":46},"mode":4,"indices":47,"material":1}]},{"primitives":[{"attributes":{"POSITION":48,"NORMAL":49},"mode":4,"indices":50,"material":1}]},{"primitives":[{"attributes":{"POSITION":51,"NORMAL":52},"mode":4,"indices":53,"material":1}]},{"primitives":[{"attributes":{"POSITION":54,"NORMAL":55},"mode":4,"indices":56,"material":1}]},{"primitives":[{"attributes":{"POSITION":57,"NORMAL":58},"mode":4,"indices":59,"material":1}]},{"primitives":[{"attributes":{"POSITION":60,"NORMAL":61},"mode":4,"indices":62,"material":0}]},{"primitives":[{"attributes":{"POSITION":63,"NORMAL":64},"mode":4,"indices":65,"material":0}]},{"primitives":[{"attributes":{"POSITION":66,"NORMAL":67},"mode":4,"indices":68,"material":3}]},{"primitives":[{"attributes":{"POSITION":69,"NORMAL":70},"mode":4,"indices":71,"material":3}]},{"primitives":[{"attributes":{"POSITION":72,"NORMAL":73},"mode":4,"indices":74,"material":3}]},{"primitives":[{"attributes":{"POSITION":75,"NORMAL":76},"mode":4,"indices":77,"material":3}]},{"primitives":[{"attributes":{"POSITION":78,"NORMAL":79},"mode":4,"indices":80,"material":3}]},{"primitives":[{"attributes":{"POSITION":81,"NORMAL":82},"mode":4,"indices":83,"material":4}]},{"primitives":[{"attributes":{"POSITION":84,"NORMAL":85},"mode":4,"indices":86,"material":4}]},{"primitives":[{"attributes":{"POSITION":87,"NORMAL":88},"mode":4,"indices":89,"material":4}]},{"primitives":[{"attributes":{"POSITION":90,"NORMAL":91},"mode":4,"indices":92,"material":4}]},{"primitives":[{"attributes":{"POSITION":93,"NORMAL":94},"mode":4,"indices":95,"material":4}]},{"primitives":[{"attributes":{"POSITION":96,"NORMAL":97},"mode":4,"indices":98,"material":4}]},{"primitives":[{"attributes":{"POSITION":99,"NORMAL":100},"mode":4,"indices":101,"material":4}]},{"primitives":[{"attributes":{"POSITION":102,"NORMAL":103},"mode":4,"indices":104,"material":4}]},{"primitives":[{"attributes":{"POSITION":105,"NORMAL":106},"mode":4,"indices":107,"material":4}]},{"primitives":[{"attributes":{"POSITION":108,"NORMAL":109},"mode":4,"indices":110,"material":4}]}],"nodes":[{"mesh":0},{"mesh":1},{"mesh":2},{"mesh":3},{"mesh":4},{"mesh":5},{"mesh":6},{"mesh":7},{"mesh":8},{"mesh":9},{"mesh":10},{"mesh":11},{"mesh":12},{"mesh":13},{"mesh":14},{"mesh":15},{"mesh":16},{"mesh":17},{"mesh":18},{"mesh":19},{"mesh":20},{"mesh":21},{"mesh":22},{"mesh":23},{"mesh":24},{"mesh":25},{"mesh":26},{"mesh":27},{"mesh":28},{"mesh":29},{"mesh":30},{"mesh":31},{"mesh":32},{"mesh":33},{"mesh":34},{"mesh":35},{"mesh":36},{"name":"Holzleiste","children":[0]},{"name":"Gehäuse (1) (1)","children":[1]},{"name":"Holzleiste (1)","children":[2]},{"name":"Gehäuse (3)","children":[3]},{"name":"Gehäuse (2) (1)","children":[4]},{"name":"Holzleiste (2)","children":[5]},{"name":"Füsse (2)","children":[6]},{"name":"Füsse (1)","children":[7]},{"name":"Füsse","children":[8]},{"name":"Bolzen","children":[9]},{"name":"Bolzen (2)","children":[10]},{"name":"Gehäuse","children":[11]},{"name":"Regler","children":[12]},{"name":"Bolzen (1)","children":[13]},{"name":"Bolzen (3)","children":[14]},{"name":"Füsse (3)","children":[15]},{"name":"Regler (1)","children":[16]},{"name":"Gehäuse (1)","children":[17]},{"name":"Gehäuse (2)","children":[18]},{"name":"Component11","children":[19]},{"name":"Holz_auf_Griff","children":[20]},{"name":"Holz_auf_Griff","children":[21]},{"name":"Griff","children":[22]},{"name":"Klappe Links","children":[23]},{"name":"Klappe Rechts","children":[24]},{"name":"Sicherheitschild","children":[25]},{"name":"Sicherheitschild","children":[26]},{"name":"Component40","children":[27]},{"name":"Component38","children":[28]},{"name":"Component31","children":[29]},{"name":"Component37","children":[30]},{"name":"Component33","children":[31]},{"name":"Component34","children":[32]},{"name":"Component35","children":[33]},{"name":"Component32","children":[34]},{"name":"Component36","children":[35]},{"name":"Component39","children":[36]}],"scenes":[{"nodes":[37,38,39,40,41,42,43,44,45,46,47,48,49,50,51,52,53,54,55,56,57,58,59,60,61,62,63,64,65,66,67,68,69,70,71,72,73]}]}